<mxfile host="app.diagrams.net" agent="Mozilla/5.0 (Windows NT 10.0; Win64; x64) AppleWebKit/537.36 (KHTML, like Gecko) Chrome/129.0.0.0 Safari/537.36 Edg/129.0.0.0" version="24.7.16">
  <diagram name="第 1 页" id="Jd5mfdbVVYj6-cd16jn0">
    <mxGraphModel dx="651" dy="359" grid="0" gridSize="10" guides="1" tooltips="1" connect="1" arrows="1" fold="1" page="1" pageScale="1" pageWidth="827" pageHeight="1169" background="#000000" math="0" shadow="0">
      <root>
        <mxCell id="0" />
        <mxCell id="1" parent="0" />
        <mxCell id="SUIG33dQ2sLJ0dJ80IVx-38" value="&lt;font face=&quot;Times New Roman&quot;&gt;......&lt;/font&gt;" style="text;html=1;align=center;verticalAlign=middle;whiteSpace=wrap;rounded=0;fontColor=#EEEEEE;rotation=90;" vertex="1" parent="1">
          <mxGeometry x="315" y="99" width="60" height="30" as="geometry" />
        </mxCell>
        <mxCell id="SUIG33dQ2sLJ0dJ80IVx-47" value="" style="rounded=1;whiteSpace=wrap;html=1;strokeColor=#BAC8D3;fontColor=#EEEEEE;fillColor=none;arcSize=7;dashed=1;" vertex="1" parent="1">
          <mxGeometry x="287" y="34" width="107" height="121" as="geometry" />
        </mxCell>
        <mxCell id="SUIG33dQ2sLJ0dJ80IVx-37" value="&lt;font face=&quot;Times New Roman&quot;&gt;......&lt;/font&gt;" style="text;html=1;align=center;verticalAlign=middle;whiteSpace=wrap;rounded=0;fontColor=#EEEEEE;rotation=90;" vertex="1" parent="1">
          <mxGeometry x="180" y="240" width="60" height="30" as="geometry" />
        </mxCell>
        <mxCell id="SUIG33dQ2sLJ0dJ80IVx-1" value="" style="rounded=1;whiteSpace=wrap;html=1;fillColor=#09555B;strokeColor=#BAC8D3;fontColor=#EEEEEE;labelBackgroundColor=none;" vertex="1" parent="1">
          <mxGeometry x="148" y="168" width="28" height="15" as="geometry" />
        </mxCell>
        <mxCell id="SUIG33dQ2sLJ0dJ80IVx-2" value="" style="rounded=1;whiteSpace=wrap;html=1;fillColor=#09555B;strokeColor=#BAC8D3;fontColor=#EEEEEE;labelBackgroundColor=none;" vertex="1" parent="1">
          <mxGeometry x="207" y="168" width="28" height="15" as="geometry" />
        </mxCell>
        <mxCell id="SUIG33dQ2sLJ0dJ80IVx-3" value="" style="rounded=1;whiteSpace=wrap;html=1;fillColor=#09555B;strokeColor=#BAC8D3;fontColor=#EEEEEE;labelBackgroundColor=none;" vertex="1" parent="1">
          <mxGeometry x="148" y="140" width="28" height="15" as="geometry" />
        </mxCell>
        <mxCell id="SUIG33dQ2sLJ0dJ80IVx-4" value="" style="rounded=1;whiteSpace=wrap;html=1;fillColor=#09555B;strokeColor=#BAC8D3;fontColor=#EEEEEE;labelBackgroundColor=none;" vertex="1" parent="1">
          <mxGeometry x="207" y="140" width="28" height="15" as="geometry" />
        </mxCell>
        <mxCell id="SUIG33dQ2sLJ0dJ80IVx-5" value="" style="rounded=1;whiteSpace=wrap;html=1;fillColor=#56165B;strokeColor=#BAC8D3;fontColor=#EEEEEE;labelBackgroundColor=none;" vertex="1" parent="1">
          <mxGeometry x="148" y="224" width="28" height="15" as="geometry" />
        </mxCell>
        <mxCell id="SUIG33dQ2sLJ0dJ80IVx-6" value="" style="rounded=1;whiteSpace=wrap;html=1;fillColor=#56165B;strokeColor=#BAC8D3;fontColor=#EEEEEE;labelBackgroundColor=none;" vertex="1" parent="1">
          <mxGeometry x="193" y="224" width="28" height="15" as="geometry" />
        </mxCell>
        <mxCell id="SUIG33dQ2sLJ0dJ80IVx-7" value="" style="rounded=1;whiteSpace=wrap;html=1;fillColor=#56165B;strokeColor=#BAC8D3;fontColor=#EEEEEE;labelBackgroundColor=none;" vertex="1" parent="1">
          <mxGeometry x="148" y="196" width="28" height="15" as="geometry" />
        </mxCell>
        <mxCell id="SUIG33dQ2sLJ0dJ80IVx-8" value="" style="rounded=1;whiteSpace=wrap;html=1;fillColor=#56165B;strokeColor=#BAC8D3;fontColor=#EEEEEE;labelBackgroundColor=none;" vertex="1" parent="1">
          <mxGeometry x="193" y="196" width="28" height="15" as="geometry" />
        </mxCell>
        <mxCell id="SUIG33dQ2sLJ0dJ80IVx-9" value="" style="rounded=1;whiteSpace=wrap;html=1;fillColor=#F19C99;strokeColor=#BAC8D3;fontColor=#EEEEEE;labelBackgroundColor=none;" vertex="1" parent="1">
          <mxGeometry x="148" y="298" width="28" height="15" as="geometry" />
        </mxCell>
        <mxCell id="SUIG33dQ2sLJ0dJ80IVx-10" value="" style="rounded=1;whiteSpace=wrap;html=1;fillColor=#F19C99;strokeColor=#BAC8D3;fontColor=#EEEEEE;labelBackgroundColor=none;" vertex="1" parent="1">
          <mxGeometry x="193" y="298" width="28" height="15" as="geometry" />
        </mxCell>
        <mxCell id="SUIG33dQ2sLJ0dJ80IVx-11" value="" style="rounded=1;whiteSpace=wrap;html=1;fillColor=#F19C99;strokeColor=#BAC8D3;fontColor=#EEEEEE;labelBackgroundColor=none;" vertex="1" parent="1">
          <mxGeometry x="148" y="269" width="28" height="15" as="geometry" />
        </mxCell>
        <mxCell id="SUIG33dQ2sLJ0dJ80IVx-12" value="" style="rounded=1;whiteSpace=wrap;html=1;fillColor=#F19C99;strokeColor=#BAC8D3;fontColor=#EEEEEE;labelBackgroundColor=none;" vertex="1" parent="1">
          <mxGeometry x="193" y="270" width="28" height="15" as="geometry" />
        </mxCell>
        <mxCell id="SUIG33dQ2sLJ0dJ80IVx-13" value="" style="rounded=1;whiteSpace=wrap;html=1;fillColor=#0FFF47;strokeColor=#BAC8D3;fontColor=#EEEEEE;labelBackgroundColor=none;" vertex="1" parent="1">
          <mxGeometry x="148" y="118" width="28" height="15" as="geometry" />
        </mxCell>
        <mxCell id="SUIG33dQ2sLJ0dJ80IVx-14" value="" style="rounded=1;whiteSpace=wrap;html=1;fillColor=#0FFF47;strokeColor=#BAC8D3;fontColor=#EEEEEE;labelBackgroundColor=none;" vertex="1" parent="1">
          <mxGeometry x="207" y="118" width="28" height="15" as="geometry" />
        </mxCell>
        <mxCell id="SUIG33dQ2sLJ0dJ80IVx-15" value="" style="rounded=1;whiteSpace=wrap;html=1;fillColor=#0FFF47;strokeColor=#BAC8D3;fontColor=#EEEEEE;labelBackgroundColor=none;" vertex="1" parent="1">
          <mxGeometry x="148" y="90" width="28" height="15" as="geometry" />
        </mxCell>
        <mxCell id="SUIG33dQ2sLJ0dJ80IVx-16" value="" style="rounded=1;whiteSpace=wrap;html=1;fillColor=#0FFF47;strokeColor=#BAC8D3;fontColor=#EEEEEE;labelBackgroundColor=none;" vertex="1" parent="1">
          <mxGeometry x="207" y="90" width="28" height="15" as="geometry" />
        </mxCell>
        <mxCell id="SUIG33dQ2sLJ0dJ80IVx-17" value="" style="ellipse;whiteSpace=wrap;html=1;aspect=fixed;strokeColor=#BAC8D3;fontColor=#EEEEEE;fillColor=#09555B;" vertex="1" parent="1">
          <mxGeometry x="297" y="105" width="18" height="18" as="geometry" />
        </mxCell>
        <mxCell id="SUIG33dQ2sLJ0dJ80IVx-18" value="" style="ellipse;whiteSpace=wrap;html=1;aspect=fixed;strokeColor=#BAC8D3;fontColor=#EEEEEE;fillColor=#0fff47;" vertex="1" parent="1">
          <mxGeometry x="331.5" y="83" width="18" height="18" as="geometry" />
        </mxCell>
        <mxCell id="SUIG33dQ2sLJ0dJ80IVx-19" value="" style="ellipse;whiteSpace=wrap;html=1;aspect=fixed;strokeColor=#BAC8D3;fontColor=#EEEEEE;fillColor=#56165b;" vertex="1" parent="1">
          <mxGeometry x="331.5" y="127" width="18" height="18" as="geometry" />
        </mxCell>
        <mxCell id="SUIG33dQ2sLJ0dJ80IVx-20" value="" style="ellipse;whiteSpace=wrap;html=1;aspect=fixed;strokeColor=#BAC8D3;fontColor=#EEEEEE;fillColor=#f19c99;" vertex="1" parent="1">
          <mxGeometry x="365" y="105" width="18" height="18" as="geometry" />
        </mxCell>
        <mxCell id="SUIG33dQ2sLJ0dJ80IVx-21" value="" style="rounded=1;whiteSpace=wrap;html=1;fillColor=#56165B;strokeColor=#BAC8D3;fontColor=#EEEEEE;labelBackgroundColor=none;" vertex="1" parent="1">
          <mxGeometry x="237" y="224" width="28" height="15" as="geometry" />
        </mxCell>
        <mxCell id="SUIG33dQ2sLJ0dJ80IVx-23" value="" style="endArrow=classicThin;html=1;rounded=0;strokeColor=#FFFFFF;exitX=1;exitY=0.5;exitDx=0;exitDy=0;entryX=0;entryY=0.5;entryDx=0;entryDy=0;endFill=1;" edge="1" parent="1" source="SUIG33dQ2sLJ0dJ80IVx-13" target="SUIG33dQ2sLJ0dJ80IVx-16">
          <mxGeometry width="50" height="50" relative="1" as="geometry">
            <mxPoint x="291" y="225" as="sourcePoint" />
            <mxPoint x="341" y="175" as="targetPoint" />
          </mxGeometry>
        </mxCell>
        <mxCell id="SUIG33dQ2sLJ0dJ80IVx-25" value="" style="endArrow=classicThin;html=1;rounded=0;strokeColor=#FFFFFF;exitX=1;exitY=0.5;exitDx=0;exitDy=0;entryX=0;entryY=0.5;entryDx=0;entryDy=0;endFill=1;" edge="1" parent="1" source="SUIG33dQ2sLJ0dJ80IVx-15" target="SUIG33dQ2sLJ0dJ80IVx-16">
          <mxGeometry width="50" height="50" relative="1" as="geometry">
            <mxPoint x="172" y="128" as="sourcePoint" />
            <mxPoint x="231" y="115" as="targetPoint" />
          </mxGeometry>
        </mxCell>
        <mxCell id="SUIG33dQ2sLJ0dJ80IVx-26" value="" style="endArrow=classicThin;html=1;rounded=0;strokeColor=#FFFFFF;exitX=1;exitY=0.5;exitDx=0;exitDy=0;entryX=0;entryY=0.5;entryDx=0;entryDy=0;endFill=1;" edge="1" parent="1" source="SUIG33dQ2sLJ0dJ80IVx-15" target="SUIG33dQ2sLJ0dJ80IVx-14">
          <mxGeometry width="50" height="50" relative="1" as="geometry">
            <mxPoint x="186" y="108" as="sourcePoint" />
            <mxPoint x="217" y="108" as="targetPoint" />
          </mxGeometry>
        </mxCell>
        <mxCell id="SUIG33dQ2sLJ0dJ80IVx-27" value="" style="endArrow=classicThin;html=1;rounded=0;strokeColor=#FFFFFF;exitX=0.5;exitY=1;exitDx=0;exitDy=0;entryX=0.5;entryY=0;entryDx=0;entryDy=0;endFill=1;" edge="1" parent="1" source="SUIG33dQ2sLJ0dJ80IVx-3" target="SUIG33dQ2sLJ0dJ80IVx-1">
          <mxGeometry width="50" height="50" relative="1" as="geometry">
            <mxPoint x="186" y="136" as="sourcePoint" />
            <mxPoint x="217" y="108" as="targetPoint" />
          </mxGeometry>
        </mxCell>
        <mxCell id="SUIG33dQ2sLJ0dJ80IVx-28" value="" style="endArrow=classicThin;html=1;rounded=0;strokeColor=#FFFFFF;exitX=1;exitY=0.5;exitDx=0;exitDy=0;entryX=0;entryY=0.5;entryDx=0;entryDy=0;endFill=1;" edge="1" parent="1" source="SUIG33dQ2sLJ0dJ80IVx-1" target="SUIG33dQ2sLJ0dJ80IVx-4">
          <mxGeometry width="50" height="50" relative="1" as="geometry">
            <mxPoint x="172" y="165" as="sourcePoint" />
            <mxPoint x="172" y="178" as="targetPoint" />
          </mxGeometry>
        </mxCell>
        <mxCell id="SUIG33dQ2sLJ0dJ80IVx-29" value="" style="endArrow=classicThin;html=1;rounded=0;strokeColor=#FFFFFF;exitX=0.5;exitY=1;exitDx=0;exitDy=0;entryX=0.5;entryY=0;entryDx=0;entryDy=0;endFill=1;" edge="1" parent="1" source="SUIG33dQ2sLJ0dJ80IVx-4" target="SUIG33dQ2sLJ0dJ80IVx-2">
          <mxGeometry width="50" height="50" relative="1" as="geometry">
            <mxPoint x="186" y="186" as="sourcePoint" />
            <mxPoint x="217" y="158" as="targetPoint" />
          </mxGeometry>
        </mxCell>
        <mxCell id="SUIG33dQ2sLJ0dJ80IVx-30" value="" style="endArrow=classicThin;html=1;rounded=0;strokeColor=#FFFFFF;exitX=1;exitY=0.5;exitDx=0;exitDy=0;entryX=0;entryY=0.5;entryDx=0;entryDy=0;endFill=1;" edge="1" parent="1" source="SUIG33dQ2sLJ0dJ80IVx-7" target="SUIG33dQ2sLJ0dJ80IVx-8">
          <mxGeometry width="50" height="50" relative="1" as="geometry">
            <mxPoint x="186" y="186" as="sourcePoint" />
            <mxPoint x="217" y="158" as="targetPoint" />
          </mxGeometry>
        </mxCell>
        <mxCell id="SUIG33dQ2sLJ0dJ80IVx-31" value="" style="endArrow=classicThin;html=1;rounded=0;strokeColor=#FFFFFF;exitX=1;exitY=0.5;exitDx=0;exitDy=0;entryX=0;entryY=0.5;entryDx=0;entryDy=0;endFill=1;" edge="1" parent="1" source="SUIG33dQ2sLJ0dJ80IVx-5" target="SUIG33dQ2sLJ0dJ80IVx-6">
          <mxGeometry width="50" height="50" relative="1" as="geometry">
            <mxPoint x="186" y="214" as="sourcePoint" />
            <mxPoint x="203" y="214" as="targetPoint" />
          </mxGeometry>
        </mxCell>
        <mxCell id="SUIG33dQ2sLJ0dJ80IVx-32" value="" style="endArrow=classicThin;html=1;rounded=0;strokeColor=#FFFFFF;exitX=1;exitY=0.5;exitDx=0;exitDy=0;entryX=0;entryY=0.5;entryDx=0;entryDy=0;endFill=1;" edge="1" parent="1" source="SUIG33dQ2sLJ0dJ80IVx-7" target="SUIG33dQ2sLJ0dJ80IVx-6">
          <mxGeometry width="50" height="50" relative="1" as="geometry">
            <mxPoint x="186" y="214" as="sourcePoint" />
            <mxPoint x="203" y="214" as="targetPoint" />
          </mxGeometry>
        </mxCell>
        <mxCell id="SUIG33dQ2sLJ0dJ80IVx-33" value="" style="endArrow=classicThin;html=1;rounded=0;strokeColor=#FFFFFF;exitX=1;exitY=0.5;exitDx=0;exitDy=0;entryX=0;entryY=0.5;entryDx=0;entryDy=0;endFill=1;" edge="1" parent="1" source="SUIG33dQ2sLJ0dJ80IVx-8" target="SUIG33dQ2sLJ0dJ80IVx-21">
          <mxGeometry width="50" height="50" relative="1" as="geometry">
            <mxPoint x="186" y="214" as="sourcePoint" />
            <mxPoint x="202" y="241" as="targetPoint" />
          </mxGeometry>
        </mxCell>
        <mxCell id="SUIG33dQ2sLJ0dJ80IVx-34" value="" style="endArrow=classicThin;html=1;rounded=0;strokeColor=#FFFFFF;exitX=1;exitY=0.5;exitDx=0;exitDy=0;entryX=0;entryY=0.5;entryDx=0;entryDy=0;endFill=1;" edge="1" parent="1" source="SUIG33dQ2sLJ0dJ80IVx-6" target="SUIG33dQ2sLJ0dJ80IVx-21">
          <mxGeometry width="50" height="50" relative="1" as="geometry">
            <mxPoint x="231" y="214" as="sourcePoint" />
            <mxPoint x="247" y="242" as="targetPoint" />
          </mxGeometry>
        </mxCell>
        <mxCell id="SUIG33dQ2sLJ0dJ80IVx-39" value="" style="rounded=1;whiteSpace=wrap;html=1;fillColor=#F19C99;strokeColor=#BAC8D3;fontColor=#EEEEEE;labelBackgroundColor=none;" vertex="1" parent="1">
          <mxGeometry x="237" y="298" width="28" height="15" as="geometry" />
        </mxCell>
        <mxCell id="SUIG33dQ2sLJ0dJ80IVx-40" value="" style="rounded=1;whiteSpace=wrap;html=1;fillColor=#F19C99;strokeColor=#BAC8D3;fontColor=#EEEEEE;labelBackgroundColor=none;" vertex="1" parent="1">
          <mxGeometry x="237" y="270" width="28" height="15" as="geometry" />
        </mxCell>
        <mxCell id="SUIG33dQ2sLJ0dJ80IVx-41" value="" style="endArrow=classicThin;html=1;rounded=0;strokeColor=#FFFFFF;exitX=0.5;exitY=0;exitDx=0;exitDy=0;entryX=0.5;entryY=1;entryDx=0;entryDy=0;endFill=1;" edge="1" parent="1" source="SUIG33dQ2sLJ0dJ80IVx-9" target="SUIG33dQ2sLJ0dJ80IVx-11">
          <mxGeometry width="50" height="50" relative="1" as="geometry">
            <mxPoint x="186" y="214" as="sourcePoint" />
            <mxPoint x="203" y="242" as="targetPoint" />
          </mxGeometry>
        </mxCell>
        <mxCell id="SUIG33dQ2sLJ0dJ80IVx-42" value="" style="endArrow=classicThin;html=1;rounded=0;strokeColor=#FFFFFF;exitX=1;exitY=0.5;exitDx=0;exitDy=0;entryX=0;entryY=0.467;entryDx=0;entryDy=0;endFill=1;entryPerimeter=0;" edge="1" parent="1" source="SUIG33dQ2sLJ0dJ80IVx-9" target="SUIG33dQ2sLJ0dJ80IVx-12">
          <mxGeometry width="50" height="50" relative="1" as="geometry">
            <mxPoint x="196" y="224" as="sourcePoint" />
            <mxPoint x="213" y="252" as="targetPoint" />
          </mxGeometry>
        </mxCell>
        <mxCell id="SUIG33dQ2sLJ0dJ80IVx-43" value="" style="endArrow=classicThin;html=1;rounded=0;strokeColor=#FFFFFF;entryX=0;entryY=0.5;entryDx=0;entryDy=0;endFill=1;exitX=1;exitY=0.5;exitDx=0;exitDy=0;" edge="1" parent="1" source="SUIG33dQ2sLJ0dJ80IVx-12" target="SUIG33dQ2sLJ0dJ80IVx-39">
          <mxGeometry width="50" height="50" relative="1" as="geometry">
            <mxPoint x="221" y="288" as="sourcePoint" />
            <mxPoint x="223" y="262" as="targetPoint" />
          </mxGeometry>
        </mxCell>
        <mxCell id="SUIG33dQ2sLJ0dJ80IVx-44" value="" style="endArrow=classicThin;html=1;rounded=0;strokeColor=#FFFFFF;exitX=1;exitY=0.5;exitDx=0;exitDy=0;entryX=0;entryY=0.5;entryDx=0;entryDy=0;endFill=1;" edge="1" parent="1" source="SUIG33dQ2sLJ0dJ80IVx-10" target="SUIG33dQ2sLJ0dJ80IVx-40">
          <mxGeometry width="50" height="50" relative="1" as="geometry">
            <mxPoint x="216" y="244" as="sourcePoint" />
            <mxPoint x="233" y="272" as="targetPoint" />
          </mxGeometry>
        </mxCell>
        <mxCell id="SUIG33dQ2sLJ0dJ80IVx-45" value="" style="endArrow=classicThin;html=1;rounded=0;strokeColor=#FFFFFF;exitX=0.5;exitY=0;exitDx=0;exitDy=0;endFill=1;entryX=0.5;entryY=1;entryDx=0;entryDy=0;" edge="1" parent="1" source="SUIG33dQ2sLJ0dJ80IVx-39" target="SUIG33dQ2sLJ0dJ80IVx-40">
          <mxGeometry width="50" height="50" relative="1" as="geometry">
            <mxPoint x="226" y="254" as="sourcePoint" />
            <mxPoint x="251" y="286" as="targetPoint" />
          </mxGeometry>
        </mxCell>
        <mxCell id="SUIG33dQ2sLJ0dJ80IVx-46" value="" style="rounded=1;whiteSpace=wrap;html=1;strokeColor=#BAC8D3;fontColor=#EEEEEE;fillColor=none;arcSize=7;dashed=1;" vertex="1" parent="1">
          <mxGeometry x="141" y="33" width="132" height="288" as="geometry" />
        </mxCell>
        <mxCell id="SUIG33dQ2sLJ0dJ80IVx-48" value="Large-Scale RCPSP&lt;div&gt;Task Level&lt;/div&gt;" style="text;html=1;align=center;verticalAlign=middle;whiteSpace=wrap;rounded=0;fontColor=#EEEEEE;fontFamily=Times New Roman;" vertex="1" parent="1">
          <mxGeometry x="148" y="47" width="118" height="30" as="geometry" />
        </mxCell>
        <mxCell id="SUIG33dQ2sLJ0dJ80IVx-49" value="Large-Scale RCPSP&lt;div&gt;Process Level&lt;/div&gt;" style="text;html=1;align=center;verticalAlign=middle;whiteSpace=wrap;rounded=0;fontColor=#EEEEEE;fontFamily=Times New Roman;" vertex="1" parent="1">
          <mxGeometry x="281.5" y="47" width="118" height="30" as="geometry" />
        </mxCell>
        <mxCell id="SUIG33dQ2sLJ0dJ80IVx-50" value="" style="endArrow=open;html=1;rounded=0;strokeColor=#ffffff;endFill=0;strokeWidth=2;" edge="1" parent="1">
          <mxGeometry width="50" height="50" relative="1" as="geometry">
            <mxPoint x="262" y="91.9" as="sourcePoint" />
            <mxPoint x="304" y="91.9" as="targetPoint" />
          </mxGeometry>
        </mxCell>
        <mxCell id="SUIG33dQ2sLJ0dJ80IVx-52" value="" style="endArrow=none;html=1;rounded=0;strokeColor=#FFFFFF;exitX=0.868;exitY=0.188;exitDx=0;exitDy=0;entryX=0;entryY=1;entryDx=0;entryDy=0;exitPerimeter=0;" edge="1" parent="1" source="SUIG33dQ2sLJ0dJ80IVx-17" target="SUIG33dQ2sLJ0dJ80IVx-18">
          <mxGeometry width="50" height="50" relative="1" as="geometry">
            <mxPoint x="344" y="177" as="sourcePoint" />
            <mxPoint x="394" y="127" as="targetPoint" />
          </mxGeometry>
        </mxCell>
        <mxCell id="SUIG33dQ2sLJ0dJ80IVx-53" value="" style="endArrow=none;html=1;rounded=0;strokeColor=#FFFFFF;exitX=1;exitY=1;exitDx=0;exitDy=0;entryX=0;entryY=0;entryDx=0;entryDy=0;" edge="1" parent="1" source="SUIG33dQ2sLJ0dJ80IVx-17" target="SUIG33dQ2sLJ0dJ80IVx-19">
          <mxGeometry width="50" height="50" relative="1" as="geometry">
            <mxPoint x="323" y="118" as="sourcePoint" />
            <mxPoint x="342" y="106" as="targetPoint" />
          </mxGeometry>
        </mxCell>
        <mxCell id="SUIG33dQ2sLJ0dJ80IVx-54" value="" style="endArrow=none;html=1;rounded=0;strokeColor=#FFFFFF;exitX=1;exitY=0;exitDx=0;exitDy=0;entryX=0;entryY=1;entryDx=0;entryDy=0;" edge="1" parent="1" source="SUIG33dQ2sLJ0dJ80IVx-19" target="SUIG33dQ2sLJ0dJ80IVx-20">
          <mxGeometry width="50" height="50" relative="1" as="geometry">
            <mxPoint x="322" y="130" as="sourcePoint" />
            <mxPoint x="344" y="142" as="targetPoint" />
          </mxGeometry>
        </mxCell>
        <mxCell id="SUIG33dQ2sLJ0dJ80IVx-55" value="" style="endArrow=none;html=1;rounded=0;strokeColor=#FFFFFF;exitX=1;exitY=1;exitDx=0;exitDy=0;entryX=0;entryY=0;entryDx=0;entryDy=0;" edge="1" parent="1" source="SUIG33dQ2sLJ0dJ80IVx-18" target="SUIG33dQ2sLJ0dJ80IVx-20">
          <mxGeometry width="50" height="50" relative="1" as="geometry">
            <mxPoint x="357" y="142" as="sourcePoint" />
            <mxPoint x="378" y="130" as="targetPoint" />
          </mxGeometry>
        </mxCell>
        <mxCell id="SUIG33dQ2sLJ0dJ80IVx-57" value="" style="rounded=1;whiteSpace=wrap;html=1;strokeColor=#BAC8D3;fontColor=#EEEEEE;fillColor=none;arcSize=7;dashed=1;" vertex="1" parent="1">
          <mxGeometry x="409" y="34" width="107" height="121" as="geometry" />
        </mxCell>
        <mxCell id="SUIG33dQ2sLJ0dJ80IVx-58" value="RL Agent" style="text;html=1;align=center;verticalAlign=middle;whiteSpace=wrap;rounded=0;fontColor=#EEEEEE;fontFamily=Times New Roman;" vertex="1" parent="1">
          <mxGeometry x="403.5" y="47" width="118" height="30" as="geometry" />
        </mxCell>
        <mxCell id="SUIG33dQ2sLJ0dJ80IVx-59" value="" style="rounded=1;whiteSpace=wrap;html=1;strokeColor=#BAC8D3;fontColor=#EEEEEE;fillColor=none;arcSize=7;dashed=1;" vertex="1" parent="1">
          <mxGeometry x="287" y="171" width="107" height="150" as="geometry" />
        </mxCell>
        <mxCell id="SUIG33dQ2sLJ0dJ80IVx-60" value="Resource Pool" style="text;html=1;align=center;verticalAlign=middle;whiteSpace=wrap;rounded=0;fontColor=#EEEEEE;fontFamily=Times New Roman;" vertex="1" parent="1">
          <mxGeometry x="281.5" y="178" width="118" height="30" as="geometry" />
        </mxCell>
        <mxCell id="SUIG33dQ2sLJ0dJ80IVx-78" value="" style="shape=table;startSize=0;container=1;collapsible=0;childLayout=tableLayout;fontSize=16;strokeColor=#BAC8D3;fontColor=#EEEEEE;fillColor=#09555B;" vertex="1" parent="1">
          <mxGeometry x="300" y="288" width="37" height="27" as="geometry" />
        </mxCell>
        <mxCell id="SUIG33dQ2sLJ0dJ80IVx-79" value="" style="shape=tableRow;horizontal=0;startSize=0;swimlaneHead=0;swimlaneBody=0;strokeColor=inherit;top=0;left=0;bottom=0;right=0;collapsible=0;dropTarget=0;fillColor=none;points=[[0,0.5],[1,0.5]];portConstraint=eastwest;fontSize=16;fontColor=#EEEEEE;" vertex="1" parent="SUIG33dQ2sLJ0dJ80IVx-78">
          <mxGeometry width="37" height="10" as="geometry" />
        </mxCell>
        <mxCell id="SUIG33dQ2sLJ0dJ80IVx-80" value="" style="shape=partialRectangle;html=1;whiteSpace=wrap;connectable=0;strokeColor=inherit;overflow=hidden;fillColor=none;top=0;left=0;bottom=0;right=0;pointerEvents=1;fontSize=16;fontColor=#EEEEEE;" vertex="1" parent="SUIG33dQ2sLJ0dJ80IVx-79">
          <mxGeometry width="12" height="10" as="geometry">
            <mxRectangle width="12" height="10" as="alternateBounds" />
          </mxGeometry>
        </mxCell>
        <mxCell id="SUIG33dQ2sLJ0dJ80IVx-81" value="" style="shape=partialRectangle;html=1;whiteSpace=wrap;connectable=0;strokeColor=inherit;overflow=hidden;fillColor=none;top=0;left=0;bottom=0;right=0;pointerEvents=1;fontSize=16;fontColor=#EEEEEE;" vertex="1" parent="SUIG33dQ2sLJ0dJ80IVx-79">
          <mxGeometry x="12" width="13" height="10" as="geometry">
            <mxRectangle width="13" height="10" as="alternateBounds" />
          </mxGeometry>
        </mxCell>
        <mxCell id="SUIG33dQ2sLJ0dJ80IVx-82" value="" style="shape=partialRectangle;html=1;whiteSpace=wrap;connectable=0;strokeColor=inherit;overflow=hidden;fillColor=none;top=0;left=0;bottom=0;right=0;pointerEvents=1;fontSize=16;fontColor=#EEEEEE;" vertex="1" parent="SUIG33dQ2sLJ0dJ80IVx-79">
          <mxGeometry x="25" width="12" height="10" as="geometry">
            <mxRectangle width="12" height="10" as="alternateBounds" />
          </mxGeometry>
        </mxCell>
        <mxCell id="SUIG33dQ2sLJ0dJ80IVx-83" value="" style="shape=tableRow;horizontal=0;startSize=0;swimlaneHead=0;swimlaneBody=0;strokeColor=inherit;top=0;left=0;bottom=0;right=0;collapsible=0;dropTarget=0;fillColor=none;points=[[0,0.5],[1,0.5]];portConstraint=eastwest;fontSize=16;fontColor=#EEEEEE;" vertex="1" parent="SUIG33dQ2sLJ0dJ80IVx-78">
          <mxGeometry y="10" width="37" height="7" as="geometry" />
        </mxCell>
        <mxCell id="SUIG33dQ2sLJ0dJ80IVx-84" value="" style="shape=partialRectangle;html=1;whiteSpace=wrap;connectable=0;strokeColor=inherit;overflow=hidden;fillColor=none;top=0;left=0;bottom=0;right=0;pointerEvents=1;fontSize=16;fontColor=#EEEEEE;" vertex="1" parent="SUIG33dQ2sLJ0dJ80IVx-83">
          <mxGeometry width="12" height="7" as="geometry">
            <mxRectangle width="12" height="7" as="alternateBounds" />
          </mxGeometry>
        </mxCell>
        <mxCell id="SUIG33dQ2sLJ0dJ80IVx-85" value="" style="shape=partialRectangle;html=1;whiteSpace=wrap;connectable=0;strokeColor=inherit;overflow=hidden;fillColor=none;top=0;left=0;bottom=0;right=0;pointerEvents=1;fontSize=16;fontColor=#EEEEEE;" vertex="1" parent="SUIG33dQ2sLJ0dJ80IVx-83">
          <mxGeometry x="12" width="13" height="7" as="geometry">
            <mxRectangle width="13" height="7" as="alternateBounds" />
          </mxGeometry>
        </mxCell>
        <mxCell id="SUIG33dQ2sLJ0dJ80IVx-86" value="" style="shape=partialRectangle;html=1;whiteSpace=wrap;connectable=0;strokeColor=inherit;overflow=hidden;fillColor=none;top=0;left=0;bottom=0;right=0;pointerEvents=1;fontSize=16;fontColor=#EEEEEE;" vertex="1" parent="SUIG33dQ2sLJ0dJ80IVx-83">
          <mxGeometry x="25" width="12" height="7" as="geometry">
            <mxRectangle width="12" height="7" as="alternateBounds" />
          </mxGeometry>
        </mxCell>
        <mxCell id="SUIG33dQ2sLJ0dJ80IVx-87" value="" style="shape=tableRow;horizontal=0;startSize=0;swimlaneHead=0;swimlaneBody=0;strokeColor=inherit;top=0;left=0;bottom=0;right=0;collapsible=0;dropTarget=0;fillColor=none;points=[[0,0.5],[1,0.5]];portConstraint=eastwest;fontSize=16;fontColor=#EEEEEE;" vertex="1" parent="SUIG33dQ2sLJ0dJ80IVx-78">
          <mxGeometry y="17" width="37" height="10" as="geometry" />
        </mxCell>
        <mxCell id="SUIG33dQ2sLJ0dJ80IVx-88" value="" style="shape=partialRectangle;html=1;whiteSpace=wrap;connectable=0;strokeColor=inherit;overflow=hidden;fillColor=none;top=0;left=0;bottom=0;right=0;pointerEvents=1;fontSize=16;fontColor=#EEEEEE;" vertex="1" parent="SUIG33dQ2sLJ0dJ80IVx-87">
          <mxGeometry width="12" height="10" as="geometry">
            <mxRectangle width="12" height="10" as="alternateBounds" />
          </mxGeometry>
        </mxCell>
        <mxCell id="SUIG33dQ2sLJ0dJ80IVx-89" value="" style="shape=partialRectangle;html=1;whiteSpace=wrap;connectable=0;strokeColor=inherit;overflow=hidden;fillColor=none;top=0;left=0;bottom=0;right=0;pointerEvents=1;fontSize=16;fontColor=#EEEEEE;" vertex="1" parent="SUIG33dQ2sLJ0dJ80IVx-87">
          <mxGeometry x="12" width="13" height="10" as="geometry">
            <mxRectangle width="13" height="10" as="alternateBounds" />
          </mxGeometry>
        </mxCell>
        <mxCell id="SUIG33dQ2sLJ0dJ80IVx-90" value="" style="shape=partialRectangle;html=1;whiteSpace=wrap;connectable=0;strokeColor=inherit;overflow=hidden;fillColor=none;top=0;left=0;bottom=0;right=0;pointerEvents=1;fontSize=16;fontColor=#EEEEEE;" vertex="1" parent="SUIG33dQ2sLJ0dJ80IVx-87">
          <mxGeometry x="25" width="12" height="10" as="geometry">
            <mxRectangle width="12" height="10" as="alternateBounds" />
          </mxGeometry>
        </mxCell>
      </root>
    </mxGraphModel>
  </diagram>
</mxfile>
